<svg width="400" height="200" viewBox="0 0 400 200" fill="none" xmlns="http://www.w3.org/2000/svg">
<g clip-path="url(#clip0_118_82)">
<ellipse cx="53.7619" cy="159.55" rx="45.7149" ry="32.8025" transform="rotate(30.7123 53.7619 159.55)" fill="#2C91C6" stroke="#257AA8" stroke-width="4"/>
<ellipse cx="343.647" cy="168.48" rx="45.7149" ry="32.8025" transform="rotate(34.0927 343.647 168.48)" fill="#2C91C6" stroke="#257AA8" stroke-width="4"/>
<path d="M353.147 190.5C353.147 278.866 287.013 324 198.647 324C110.282 324 46.6472 278.866 46.6472 190.5C46.6472 102.134 110.282 4 198.647 4C287.013 4 353.147 102.134 353.147 190.5Z" fill="#2C91C6" stroke="#257AA8" stroke-width="4"/>
<path d="M319.647 195.869C319.647 265.457 267.646 301 198.164 301C128.683 301 78.6472 265.457 78.6472 195.869C78.6472 126.281 128.683 49 198.164 49C267.646 49 319.647 126.281 319.647 195.869Z" fill="#F8F8F8"/>
<path d="M289.805 69.5105C289.727 70.6123 290.558 71.5683 291.66 71.6456C292.761 71.7229 293.717 70.8924 293.795 69.7905L289.805 69.5105ZM272.952 68.4378C272.875 69.5397 273.705 70.4956 274.807 70.5729C275.909 70.6502 276.865 69.8197 276.942 68.7178L272.952 68.4378ZM293.795 69.7905C294.033 66.3915 292.959 63.603 291.061 61.6308C289.196 59.6915 286.65 58.6594 284.105 58.4974C281.561 58.3354 278.901 59.0359 276.79 60.7142C274.644 62.4201 273.191 65.0389 272.952 68.4378L276.942 68.7178C277.107 66.3694 278.063 64.8118 279.279 63.8453C280.529 62.8512 282.183 62.3831 283.851 62.4894C285.52 62.5956 287.087 63.2686 288.179 64.404C289.24 65.5065 289.969 67.1625 289.805 69.5105L293.795 69.7905Z" fill="#101315"/>
<path d="M109.056 69.5105C109.134 70.6123 108.303 71.5683 107.201 71.6456C106.099 71.7229 105.143 70.8924 105.066 69.7905L109.056 69.5105ZM125.909 68.4378C125.986 69.5397 125.156 70.4956 124.054 70.5729C122.952 70.6502 121.996 69.8197 121.919 68.7178L125.909 68.4378ZM105.066 69.7905C104.828 66.3915 105.902 63.603 107.799 61.6308C109.665 59.6915 112.211 58.6594 114.755 58.4974C117.3 58.3354 119.96 59.0359 122.071 60.7142C124.217 62.4201 125.67 65.0389 125.909 68.4378L121.919 68.7178C121.754 66.3694 120.798 64.8118 119.582 63.8453C118.332 62.8512 116.678 62.3831 115.01 62.4894C113.341 62.5956 111.774 63.2686 110.682 64.404C109.621 65.5065 108.892 67.1625 109.056 69.5105L105.066 69.7905Z" fill="#101315"/>
<path d="M184.706 94C184.706 118 214.733 118 214.733 94C214.733 94 209.615 97.5002 200.115 97.5C190.615 97.4998 184.706 94 184.706 94Z" fill="#101315"/>
<path d="M184.706 94L185.47 92.7094C185.007 92.4348 184.431 92.43 183.963 92.6969C183.495 92.9637 183.206 93.4612 183.206 94L184.706 94ZM214.733 94L216.233 94C216.233 93.4436 215.925 92.933 215.433 92.6734C214.941 92.4137 214.345 92.4478 213.886 92.7619L214.733 94ZM183.206 94C183.206 100.322 185.189 105.208 188.304 108.526C191.411 111.838 195.564 113.5 199.719 113.5C203.875 113.5 208.028 111.838 211.135 108.526C214.249 105.208 216.233 100.322 216.233 94L213.233 94C213.233 99.6785 211.463 103.792 208.947 106.474C206.424 109.163 203.071 110.5 199.719 110.5C196.368 110.5 193.015 109.163 190.491 106.474C187.976 103.792 186.206 99.6785 186.206 94L183.206 94ZM214.733 94C213.886 92.7619 213.886 92.7616 213.887 92.7612C213.887 92.7611 213.888 92.7608 213.888 92.7606C213.888 92.7603 213.889 92.76 213.889 92.7597C213.89 92.7592 213.891 92.7588 213.891 92.7587C213.891 92.7585 213.89 92.7591 213.888 92.7605C213.884 92.7633 213.875 92.7693 213.861 92.7783C213.833 92.7962 213.786 92.8262 213.719 92.8664C213.586 92.9468 213.376 93.0683 213.09 93.2174C212.519 93.5156 211.647 93.9242 210.485 94.3364C208.163 95.1601 204.678 96.0001 200.115 96L200.115 99C205.052 99.0001 208.876 98.0901 211.488 97.1638C212.793 96.7009 213.794 96.2345 214.479 95.8765C214.822 95.6975 215.086 95.5455 215.27 95.4345C215.362 95.379 215.434 95.3337 215.485 95.3004C215.511 95.2838 215.532 95.2701 215.548 95.2597C215.555 95.2544 215.562 95.25 215.567 95.2464C215.57 95.2446 215.572 95.243 215.574 95.2417C215.575 95.241 215.576 95.2403 215.577 95.2397C215.578 95.2395 215.578 95.2391 215.578 95.2389C215.579 95.2385 215.58 95.2382 214.733 94ZM200.115 96C195.55 95.9999 191.856 95.1589 189.316 94.3248C188.046 93.9078 187.066 93.4932 186.412 93.1878C186.086 93.0352 185.841 92.91 185.682 92.8257C185.603 92.7836 185.545 92.7517 185.51 92.7318C185.492 92.7218 185.48 92.7148 185.473 92.711C185.47 92.7091 185.468 92.708 185.467 92.7077C185.467 92.7076 185.467 92.7077 185.468 92.7079C185.468 92.7081 185.468 92.7083 185.469 92.7085C185.469 92.7086 185.469 92.7089 185.469 92.7089C185.47 92.7092 185.47 92.7094 184.706 94C183.941 95.2907 183.942 95.2909 183.942 95.2912C183.943 95.2913 183.943 95.2916 183.943 95.2919C183.944 95.2923 183.945 95.2928 183.946 95.2934C183.948 95.2945 183.95 95.2959 183.953 95.2974C183.958 95.3005 183.965 95.3044 183.973 95.3091C183.989 95.3186 184.012 95.3313 184.039 95.3469C184.095 95.3782 184.174 95.4215 184.275 95.4751C184.476 95.5822 184.767 95.7305 185.143 95.9059C185.894 96.2568 186.985 96.7171 188.38 97.1751C191.169 98.0909 195.18 98.9999 200.115 99L200.115 96Z" fill="#101315"/>
</g>
<defs>
<clipPath id="clip0_118_82">
<rect width="400" height="200" fill="white"/>
</clipPath>
</defs>
</svg>
