<svg width="129" height="93" viewBox="0 0 129 93" fill="none" xmlns="http://www.w3.org/2000/svg">
<g clip-path="url(#clip0_28_23)">
<path d="M64.3699 1.78C29.4499 1.78 1.1499 42.12 1.1499 91.88H127.58C127.58 42.12 99.2799 1.78 64.3699 1.78Z" fill="#2C91C6" stroke="#2C91C6" stroke-width="2" stroke-miterlimit="10"/>
<path d="M64.3699 26.53C37.2899 26.53 15.3699 56.23 15.3699 92.86H113.37C113.39 56.23 91.4399 26.53 64.3699 26.53Z" fill="#F8F8F8"/>
<path d="M28.8999 35.2C31.2913 35.2 33.2299 33.2614 33.2299 30.87C33.2299 28.4786 31.2913 26.54 28.8999 26.54C26.5086 26.54 24.5699 28.4786 24.5699 30.87C24.5699 33.2614 26.5086 35.2 28.8999 35.2Z" fill="#101315"/>
<path d="M99.8299 35.2C102.221 35.2 104.16 33.2614 104.16 30.87C104.16 28.4786 102.221 26.54 99.8299 26.54C97.4385 26.54 95.4999 28.4786 95.4999 30.87C95.4999 33.2614 97.4385 35.2 99.8299 35.2Z" fill="#101315"/>
<path d="M56.3099 43.14C56.3099 52.98 72.4299 52.98 72.4299 43.14" stroke="#101315" stroke-width="1.5" stroke-miterlimit="10"/>
</g>
<defs>
<clipPath id="clip0_28_23">
<rect width="128.43" height="92.1" fill="white" transform="translate(0.149902 0.780003)"/>
</clipPath>
</defs>
</svg>
