<svg width="129" height="93" viewBox="0 0 129 93" fill="none" xmlns="http://www.w3.org/2000/svg">
<g clip-path="url(#clip0_28_25)">
<path d="M64.51 1.78C29.59 1.78 1.29004 42.12 1.29004 91.88H127.72C127.72 42.12 99.42 1.78 64.51 1.78Z" fill="#2C91C6" stroke="#2C91C6" stroke-width="2" stroke-miterlimit="10"/>
<path d="M64.51 26.53C37.43 26.53 15.51 56.23 15.51 92.86H113.51C113.53 56.23 91.58 26.53 64.51 26.53Z" fill="#F8F8F8"/>
<path d="M29.0401 35.2C31.4315 35.2 33.3701 33.2614 33.3701 30.87C33.3701 28.4786 31.4315 26.54 29.0401 26.54C26.6487 26.54 24.7101 28.4786 24.7101 30.87C24.7101 33.2614 26.6487 35.2 29.0401 35.2Z" fill="#101315"/>
<path d="M99.97 35.2C102.361 35.2 104.3 33.2614 104.3 30.87C104.3 28.4786 102.361 26.54 99.97 26.54C97.5786 26.54 95.64 28.4786 95.64 30.87C95.64 33.2614 97.5786 35.2 99.97 35.2Z" fill="#101315"/>
<path d="M72.5701 51.01C72.5701 41.17 56.4501 41.17 56.4501 51.01" stroke="#101315" stroke-width="1.5" stroke-miterlimit="10"/>
</g>
<defs>
<clipPath id="clip0_28_25">
<rect width="128.43" height="92.1" fill="white" transform="translate(0.290039 0.780003)"/>
</clipPath>
</defs>
</svg>
